# xmcd CD database file
#
# Track frame offsets:
#	150
#	12827
#	26794
#	40184
#	53757
#	66227
#	79104
#	90478
#	104087
#	116631
#	128332
#	139886
#	151204
#	165009
#	177597
#	187242
#	198612
#	209181
#	219239
#	230113
#	240927
#	252388
#	263117
#	271771
#	281439
#	293324
#	304408
#
# Disc length: 4193 seconds
#
# Revision: 0
# Processed by: cddbd v1.5.2PL0 Copyright (c) Steve Scherf et al.
# Submitted via: CDex 1.51
#
DISCID=86105f1b
DTITLE=Rocky Bill Ford - His Complete Recordings
DYEAR=1900
DGENRE=Country
TTITLE0=Beer Drinking Blues
TTITLE1=Aggravatin' Woman
TTITLE2=You Know Doggone Well I Do
TTITLE3=Was I Dreaming
TTITLE4=I'm A Hen Pecked Man
TTITLE5=Darling, Why Do You Pretend
TTITLE6=I'll Try All My Life
TTITLE7=Willie Dum Dee
TTITLE8=Blowing Suds Off My Beer
TTITLE9=What Would You Do
TTITLE10=Watchin' The Clock And Grievin'
TTITLE11=Have I Overstayed My Welcome
TTITLE12=In All My Dreams
TTITLE13=At My Expense
TTITLE14=Love Me Love Me Not
TTITLE15=There She Goes
TTITLE16=Drifting Apart
TTITLE17=A Little Less
TTITLE18=You Married For Money
TTITLE19=Since You're Gone
TTITLE20=I Don't Wanta
TTITLE21=Don't Throw Your Life Away
TTITLE22=A Message From The Tradewinds
TTITLE23=I Won't Be Home No More
TTITLE24=Take These Chains From My Heart
TTITLE25=Mad Dog In Town
TTITLE26=Have You Seen Mabel
EXTD=
EXTT0=
EXTT1=
EXTT2=
EXTT3=
EXTT4=
EXTT5=
EXTT6=
EXTT7=
EXTT8=
EXTT9=
EXTT10=
EXTT11=
EXTT12=
EXTT13=
EXTT14=
EXTT15=
EXTT16=
EXTT17=
EXTT18=
EXTT19=
EXTT20=
EXTT21=
EXTT22=
EXTT23=
EXTT24=
EXTT25=
EXTT26=
PLAYORDER=
